<svg xmlns="http://www.w3.org/2000/svg" viewBox="0 0 1200 700"><defs><linearGradient id="g" x1="0" y1="0" x2="1" y2="1"><stop stop-color="#7c5cff"/><stop offset="1" stop-color="#28d7c0"/></linearGradient></defs><rect width="1200" height="700" fill="#0f1728"/><circle cx="1050" cy="100" r="170" fill="#28d7c0" opacity=".1"/><rect x="140" y="120" width="920" height="470" rx="32" fill="#17223a"/><rect x="200" y="180" width="300" height="350" rx="22" fill="#202f4d"/><path d="M350 220l135 62-135 62-135-62z" fill="url(#g)"/><path d="M255 318v85c45 45 145 45 190 0v-85" fill="none" stroke="#eef4ff" stroke-width="18"/><rect x="575" y="190" width="390" height="70" rx="16" fill="#263653"/><rect x="575" y="300" width="390" height="52" rx="14" fill="#263653"/><rect x="575" y="382" width="270" height="52" rx="14" fill="#263653"/><rect x="575" y="474" width="180" height="48" rx="24" fill="url(#g)"/><text x="785" y="237" text-anchor="middle" fill="#fff" font-family="Arial" font-size="34" font-weight="700">Course Registration</text><text x="665" y="506" text-anchor="middle" fill="#fff" font-family="Arial" font-size="21" font-weight="700">Enroll</text></svg>