<svg xmlns="http://www.w3.org/2000/svg" viewBox="0 0 1200 700"><defs><linearGradient id="b" x1="0" y1="0" x2="1" y2="1"><stop stop-color="#ff8a5b"/><stop offset="1" stop-color="#ffd166"/></linearGradient></defs><rect width="1200" height="700" fill="#101827"/><circle cx="1040" cy="120" r="180" fill="#7c5cff" opacity=".18"/><rect x="120" y="160" width="960" height="420" rx="34" fill="#182338"/><path d="M210 315h430l-35 190H245z" fill="url(#b)"/><rect x="260" y="250" width="330" height="90" rx="18" fill="#fff2d9"/><path d="M260 250h330l-28-70H288z" fill="#e64f4f"/><path d="M288 180l-15 70m75-70l-8 70m75-70v70m75-70l8 70m65-70l15 70" stroke="#fff" stroke-width="18"/><circle cx="315" cy="510" r="42" fill="#26344f"/><circle cx="565" cy="510" r="42" fill="#26344f"/><path d="M750 230c0-70 105-70 105 0 0 78-52 125-52 125s-53-47-53-125z" fill="#28d7c0"/><circle cx="803" cy="230" r="24" fill="#101827"/><rect x="700" y="400" width="260" height="25" rx="12" fill="#eef4ff" opacity=".9"/><rect x="700" y="450" width="200" height="20" rx="10" fill="#aab3c7"/><text x="700" y="350" fill="#fff" font-family="Arial" font-size="44" font-weight="700">Street Food Finder</text></svg>