<svg xmlns="http://www.w3.org/2000/svg" viewBox="0 0 1200 700"><defs><linearGradient id="sky" x1="0" y1="0" x2="0" y2="1"><stop stop-color="#4f7cff"/><stop offset="1" stop-color="#b7d7ff"/></linearGradient></defs><rect width="1200" height="700" fill="url(#sky)"/><circle cx="980" cy="120" r="70" fill="#ffd166"/><path d="M0 520l260-250 170 150 180-230 220 260 160-145 210 215v180H0z" fill="#304d6d"/><path d="M0 565l280-180 170 120 210-170 190 180 150-100 200 155v130H0z" fill="#1f3349"/><rect x="160" y="150" width="360" height="330" rx="28" fill="#fff" opacity=".94"/><text x="210" y="230" fill="#17233a" font-family="Arial" font-size="38" font-weight="700">Book Your Tour</text><rect x="210" y="270" width="260" height="50" rx="14" fill="#edf2fa"/><rect x="210" y="340" width="260" height="50" rx="14" fill="#edf2fa"/><rect x="210" y="410" width="180" height="48" rx="24" fill="#7c5cff"/><text x="255" y="443" fill="#fff" font-family="Arial" font-size="22" font-weight="700">Explore</text><path d="M805 285l175 40-25 40-115-8-70 78-35-12 55-95-98-25 20-34z" fill="#fff"/></svg>